<svg id="Layer_1" data-name="Layer 1" xmlns="http://www.w3.org/2000/svg" viewBox="0 0 155.42 221.05"><path d="M169.8,115.22a30,30,0,0,0-30-30h-8.18V73.95h-5.45V68.49h5.45V63H104.35v5.45h5.45v5.45h-5.45v38.54h5.45V123.4h16.36V112.49h5.45V101.58h8.18a13.64,13.64,0,1,1,0,27.27H98.9v5.45h16.36v5.45h-2.73A13.65,13.65,0,0,0,98.9,153.4v2.73H148V153.4a13.57,13.57,0,0,0-3.08-8.62A30,30,0,0,0,169.8,115.22ZM115.26,68.49h5.45v5.45h-5.45Zm5.45,49.45h-5.45v-5.45h5.45ZM126.17,107H109.8V79.4h16.36Zm-5.45,27.27h5.45v5.45h-5.45Zm-15.9,16.36a8.2,8.2,0,0,1,7.71-5.45h21.82a8.2,8.2,0,0,1,7.71,5.45Zm35-10.91h-8.18v-5.45h8.18a19.09,19.09,0,0,0,0-38.18h-8.18V90.67h8.18a24.54,24.54,0,0,1,0,49.09Z" transform="translate(-47.29 -28.73)"/><path d="M125,28.73A77.73,77.73,0,0,0,58.89,147.3l61.69,99.41a6.48,6.48,0,0,0,5.5,3.06h.05a6.47,6.47,0,0,0,5.5-3.15l60.12-100.37A77.73,77.73,0,0,0,125,28.73ZM180.64,139.6,126,230.86,69.9,140.48a64.8,64.8,0,1,1,110.74-.88Z" transform="translate(-47.29 -28.73)"/></svg>